<svg width="180" height="360" viewBox="0 0 180 360" fill="none" xmlns="http://www.w3.org/2000/svg">
<path fill-rule="evenodd" clip-rule="evenodd" d="M0 359.778C9.58341 358.807 18.9051 354.651 26.2474 347.309C43.1696 330.386 43.1696 302.95 26.2474 286.028C19.2025 278.983 10.3353 274.871 1.16303 273.692C26.0222 273.433 48.557 263.476 65.1639 247.424C59.6751 254.685 56.4196 263.728 56.4196 273.531C56.4196 297.463 75.8201 316.863 99.7517 316.863C123.683 316.863 143.084 297.463 143.084 273.531C143.084 249.6 123.683 230.199 99.7517 230.199C88.9457 230.199 79.0636 234.155 71.4742 240.697C78.8132 232.06 84.6109 222.073 88.4424 211.16C91.8084 201.611 93.5773 191.624 93.7492 181.615C95.0038 190.626 99.0956 199.318 106.025 206.247C122.947 223.17 150.383 223.17 167.306 206.247C184.228 189.325 184.228 161.889 167.306 144.967C150.383 128.044 122.947 128.044 106.025 144.967C98.3874 152.604 94.1969 162.383 93.4535 172.371C91.8972 153.237 84.4747 134.49 71.1858 119.052C78.8125 125.744 88.8083 129.8 99.7517 129.8C123.683 129.8 143.084 110.4 143.084 86.4683C143.084 62.5367 123.683 43.1363 99.7517 43.1363C75.8201 43.1363 56.4196 62.5367 56.4196 86.4683C56.4196 96.4526 59.7964 105.648 65.4702 112.975C48.7823 96.7231 27.5269 87.9439 5.9045 86.638C16.4861 86.2717 26.959 82.0499 35.0365 73.9724C51.9587 57.0502 51.9587 29.6139 35.0365 12.6917C25.4558 3.11097 12.5049 -1.04551 0 0.222217V3.23885C11.7331 1.95979 23.92 5.81784 32.9151 14.813C48.6658 30.5636 48.6658 56.1005 32.9151 71.8511C23.92 80.8463 11.7331 84.7043 0 83.4252V86.4419C0.0845443 86.4504 0.169109 86.4588 0.253693 86.4668C0.169128 86.4668 0.0845641 86.4669 0 86.4671V89.6334C0.0562116 89.6333 0.112435 89.6332 0.168671 89.6332C50.168 89.6332 90.7005 130.166 90.7005 180.165C90.7005 190.712 88.8968 200.838 85.581 210.252C81.221 222.579 74.1096 234.152 64.2469 244.014C46.5107 261.751 23.2461 270.589 0 270.53V276.575C8.81283 277.535 17.3698 281.393 24.1261 288.149C39.8768 303.9 39.8767 329.437 24.1261 345.187C17.3698 351.944 8.81283 355.802 0 356.762V359.778ZM0 333.358C7.07622 331.493 12.2941 325.049 12.2941 317.387C12.2941 309.725 7.07622 303.282 0 301.416V304.544C5.39705 306.317 9.29405 311.397 9.29405 317.387C9.29405 323.377 5.39705 328.457 0 330.23V333.358ZM0 261.624C0.174635 261.625 0.349399 261.626 0.524292 261.626C45.6783 261.626 82.2829 225.021 82.2829 179.867C82.2829 134.713 45.6783 98.1088 0.524292 98.1088C0.349399 98.1088 0.174635 98.1093 0 98.1104V101.11C0.17463 101.109 0.349394 101.109 0.524292 101.109C44.0215 101.109 79.2829 136.37 79.2829 179.867C79.2829 223.365 44.0215 258.626 0.524292 258.626C0.349394 258.626 0.17463 258.625 0 258.624V261.624ZM0 60.9201C1.36526 61.2855 2.80026 61.4803 4.28076 61.4803C13.4019 61.4803 20.796 54.0861 20.796 44.965C20.796 35.8439 13.4019 28.4498 4.28076 28.4498C2.80026 28.4498 1.36526 28.6446 0 29.01V32.1418C1.34524 31.6929 2.78461 31.4498 4.28076 31.4498C11.745 31.4498 17.796 37.5008 17.796 44.965C17.796 52.4293 11.745 58.4803 4.28076 58.4803C2.78461 58.4803 1.34524 58.2371 0 57.7883V60.9201ZM165.184 204.126C180.935 188.375 180.935 162.839 165.184 147.088C149.434 131.337 123.897 131.337 108.146 147.088C92.3955 162.839 92.3955 188.375 108.146 204.126C123.897 219.877 149.434 219.877 165.184 204.126ZM140.084 86.4683C140.084 108.743 122.026 126.8 99.7517 126.8C77.4769 126.8 59.4196 108.743 59.4196 86.4683C59.4196 64.1936 77.4769 46.1363 99.7517 46.1363C122.026 46.1363 140.084 64.1936 140.084 86.4683ZM99.7517 313.863C122.026 313.863 140.084 295.806 140.084 273.531C140.084 251.256 122.026 233.199 99.7517 233.199C77.4769 233.199 59.4196 251.256 59.4196 273.531C59.4196 295.806 77.4769 313.863 99.7517 313.863ZM137.06 190.278C144.524 190.278 150.575 184.227 150.575 176.762C150.575 169.298 144.524 163.247 137.06 163.247C129.595 163.247 123.544 169.298 123.544 176.762C123.544 184.227 129.595 190.278 137.06 190.278ZM137.06 193.278C146.181 193.278 153.575 185.884 153.575 176.762C153.575 167.641 146.181 160.247 137.06 160.247C127.939 160.247 120.544 167.641 120.544 176.762C120.544 185.884 127.939 193.278 137.06 193.278ZM114.276 86.502C114.276 93.9663 108.225 100.017 100.761 100.017C93.2967 100.017 87.2457 93.9663 87.2457 86.502C87.2457 79.0378 93.2967 72.9868 100.761 72.9868C108.225 72.9868 114.276 79.0378 114.276 86.502ZM117.276 86.502C117.276 95.6231 109.882 103.017 100.761 103.017C91.6399 103.017 84.2457 95.6231 84.2457 86.502C84.2457 77.3809 91.6399 69.9868 100.761 69.9868C109.882 69.9868 117.276 77.3809 117.276 86.502ZM100.761 289.368C108.225 289.368 114.276 283.317 114.276 275.853C114.276 268.389 108.225 262.338 100.761 262.338C93.2967 262.338 87.2457 268.389 87.2457 275.853C87.2457 283.317 93.2967 289.368 100.761 289.368ZM100.761 292.368C109.882 292.368 117.276 284.974 117.276 275.853C117.276 266.732 109.882 259.338 100.761 259.338C91.6399 259.338 84.2457 266.732 84.2457 275.853C84.2457 284.974 91.6399 292.368 100.761 292.368Z" fill="#010101"/>
</svg>
